# xmcd
#
# Track frame offsets: 
#        182
#        15020
#        33832
#        52045
#        66545
#        83582
#        108430
#        121020
#        136905
#        156142
#
# Disc length: 2250 seconds
#
# Revision: 3
# Processed by: cddbd v1.5.2PL0 Copyright (c) Steve Scherf et al.
# Submitted via: ExactAudioCopy v1.0b3
#
DISCID=7208c80a
DTITLE=Eric Clapton - Money and Cigarettes
DYEAR=1983
DGENRE=Rock
TTITLE0=Everybody Oughta Make a Change
TTITLE1=The Shape You're In
TTITLE2=Ain't Going Down
TTITLE3=I've Got a Rock N' Roll Heart
TTITLE4=Man Overboard
TTITLE5=Pretty Girl
TTITLE6=Man In Love
TTITLE7=Crosscut Saw
TTITLE8=Slow Down Linda
TTITLE9=Crazy Country Hop
EXTD=
EXTT0=
EXTT1=
EXTT2=
EXTT3=
EXTT4=
EXTT5=
EXTT6=
EXTT7=
EXTT8=
EXTT9=
PLAYORDER=
